<svg width="50" height="38" viewBox="0 0 50 38" fill="none" xmlns="http://www.w3.org/2000/svg">
<path d="M44.8163 3.22222H41.6775V1.11111C41.6775 0.5 41.0914 0 40.375 0C39.6587 0 39.0726 0.5 39.0726 1.11111V3.22222H26.3089V1.11111C26.3089 0.5 25.7228 0 25.0065 0C24.2902 0 23.7041 0.5 23.7041 1.11111V3.22222H10.8101V1.11111C10.8101 0.5 10.224 0 9.50767 0C8.79134 0 8.20525 0.5 8.20525 1.11111V3.22222H5.19666C2.33133 3.22222 0 5.27778 0 7.72222V33.5556C0 36.0111 2.31831 38 5.19666 38H44.8033C47.6816 38 49.9999 36.0111 49.9999 33.5667V7.72222C50.013 5.27778 47.6816 3.22222 44.8163 3.22222Z" fill="#4467E3"/>
<path d="M8.728 12.2H11.128V29H8.368V15.152L4.984 16.112L4.312 13.76L8.728 12.2ZM13.4337 29V26.84L19.2897 20.864C20.7137 19.44 21.4257 18.208 21.4257 17.168C21.4257 16.352 21.1777 15.72 20.6817 15.272C20.2017 14.808 19.5857 14.576 18.8337 14.576C17.4257 14.576 16.3857 15.272 15.7137 16.664L13.3857 15.296C13.9137 14.176 14.6577 13.328 15.6177 12.752C16.5777 12.176 17.6417 11.888 18.8097 11.888C20.2817 11.888 21.5457 12.352 22.6017 13.28C23.6577 14.208 24.1857 15.472 24.1857 17.072C24.1857 18.784 23.2337 20.608 21.3297 22.544L17.5377 26.336H24.4977V29H13.4337ZM36.6728 23.312C36.6728 23.952 36.5048 24.516 36.1688 25.004L33.5168 29H31.9328L33.8528 26.18H33.7088C32.8368 26.18 32.1208 25.916 31.5608 25.388C31.0088 24.852 30.7328 24.16 30.7328 23.312C30.7328 22.464 31.0088 21.776 31.5608 21.248C32.1208 20.712 32.8368 20.444 33.7088 20.444C34.5808 20.444 35.2928 20.712 35.8448 21.248C36.3968 21.776 36.6728 22.464 36.6728 23.312ZM32.1128 23.312C32.1128 23.776 32.2608 24.152 32.5568 24.44C32.8608 24.728 33.2448 24.872 33.7088 24.872C34.1728 24.872 34.5528 24.732 34.8488 24.452C35.1448 24.164 35.2928 23.784 35.2928 23.312C35.2928 22.84 35.1448 22.464 34.8488 22.184C34.5528 21.896 34.1728 21.752 33.7088 21.752C33.2448 21.752 32.8608 21.896 32.5568 22.184C32.2608 22.464 32.1128 22.84 32.1128 23.312ZM43.0559 27.968C42.4799 28.76 41.6719 29.156 40.6319 29.156C39.5919 29.156 38.7799 28.76 38.1959 27.968C37.6199 27.176 37.3319 26.12 37.3319 24.8C37.3319 23.48 37.6199 22.424 38.1959 21.632C38.7799 20.84 39.5919 20.444 40.6319 20.444C41.6719 20.444 42.4799 20.84 43.0559 21.632C43.6399 22.424 43.9319 23.48 43.9319 24.8C43.9319 26.12 43.6399 27.176 43.0559 27.968ZM40.6319 27.812C41.2559 27.812 41.7319 27.552 42.0599 27.032C42.3879 26.512 42.5519 25.768 42.5519 24.8C42.5519 23.832 42.3879 23.088 42.0599 22.568C41.7319 22.048 41.2559 21.788 40.6319 21.788C40.0159 21.788 39.5399 22.048 39.2039 22.568C38.8759 23.088 38.7119 23.832 38.7119 24.8C38.7119 25.768 38.8759 26.512 39.2039 27.032C39.5399 27.552 40.0159 27.812 40.6319 27.812Z" fill="white"/>
<path d="M30.383 16.559H31.013V18.206H30.554V17H26.666V18.206H26.207V16.559H26.729C27.059 16.109 27.224 15.506 27.224 14.75V12.5H30.383V16.559ZM27.287 16.559H29.924V12.941H27.674V14.75C27.674 15.488 27.545 16.091 27.287 16.559ZM33.8508 12.401C34.5108 12.401 35.0448 12.635 35.4528 13.103C35.8668 13.571 36.0738 14.126 36.0738 14.768C36.0738 14.792 36.0708 14.828 36.0648 14.876C36.0648 14.924 36.0648 14.96 36.0648 14.984H31.9878C32.0418 15.488 32.2428 15.896 32.5908 16.208C32.9448 16.514 33.3798 16.667 33.8958 16.667C34.2558 16.667 34.5708 16.592 34.8408 16.442C35.1108 16.292 35.3148 16.094 35.4528 15.848L35.8488 16.082C35.6628 16.394 35.3988 16.643 35.0568 16.829C34.7148 17.009 34.3248 17.099 33.8868 17.099C33.1968 17.099 32.6298 16.88 32.1858 16.442C31.7418 15.998 31.5198 15.434 31.5198 14.75C31.5198 14.078 31.7358 13.52 32.1678 13.076C32.6058 12.626 33.1668 12.401 33.8508 12.401ZM33.8508 12.833C33.3408 12.833 32.9148 12.992 32.5728 13.31C32.2308 13.628 32.0358 14.039 31.9878 14.543H35.6058C35.5578 14.009 35.3658 13.592 35.0298 13.292C34.6998 12.986 34.3068 12.833 33.8508 12.833ZM40.3836 12.5H40.8426V17H40.3836V14.966H37.5756V17H37.1256V12.5H37.5756V14.534H40.3836V12.5ZM44.0141 14.246C44.4281 14.246 44.7791 14.375 45.0671 14.633C45.3551 14.891 45.4991 15.221 45.4991 15.623C45.4991 16.025 45.3551 16.355 45.0671 16.613C44.7791 16.871 44.4281 17 44.0141 17H42.2321V12.5H42.6821V14.246H44.0141ZM44.0141 16.559C44.3021 16.559 44.5451 16.472 44.7431 16.298C44.9411 16.124 45.0401 15.899 45.0401 15.623C45.0401 15.341 44.9411 15.116 44.7431 14.948C44.5511 14.774 44.3081 14.687 44.0141 14.687H42.6821V16.559H44.0141Z" fill="white"/>
<path d="M28 21V29" stroke="white"/>
</svg>
