<svg width="30" height="30" viewBox="0 0 30 30" fill="none" xmlns="http://www.w3.org/2000/svg">
<rect width="30" height="30" rx="8" fill="#4467E3"/>
<path d="M15.7024 7C16.6404 7 17.1094 7.6384 17.1094 8.3699C17.1094 9.2834 16.2946 10.1283 15.2341 10.1283C14.3458 10.1283 13.8278 9.6033 13.8523 8.7353C13.8523 8.0052 14.469 7 15.7024 7ZM12.8163 21C12.0757 21 11.5332 20.5436 12.0512 18.5332L12.901 14.9688C13.0487 14.399 13.0732 14.1701 12.901 14.1701C12.6791 14.1701 11.7187 14.5635 11.1496 14.952L10.78 14.336C12.5804 12.8058 14.6517 11.9091 15.5407 11.9091C16.2806 11.9091 16.4038 12.8002 16.0342 14.1701L15.0605 17.9165C14.8883 18.578 14.9618 18.8062 15.1347 18.8062C15.3566 18.8062 16.0846 18.5318 16.8 17.9613L17.22 18.5311C15.4686 20.314 13.5555 21 12.8163 21Z" fill="white"/>
</svg>
