<svg width="53" height="53" viewBox="0 0 53 53" fill="none" xmlns="http://www.w3.org/2000/svg">
<path d="M26.5 0.25C12.0625 0.25 0.25 12.0625 0.25 26.5C0.25 40.9375 12.0625 52.75 26.5 52.75C40.9375 52.75 52.75 40.9375 52.75 26.5C52.75 12.0625 40.9375 0.25 26.5 0.25ZM23.875 37C23.875 38.575 22.825 39.625 21.25 39.625C19.675 39.625 18.625 38.575 18.625 37V16C18.625 14.425 19.675 13.375 21.25 13.375C22.825 13.375 23.875 14.425 23.875 16V37ZM34.375 37C34.375 38.575 33.325 39.625 31.75 39.625C30.175 39.625 29.125 38.575 29.125 37V16C29.125 14.425 30.175 13.375 31.75 13.375C33.325 13.375 34.375 14.425 34.375 16V37Z" fill="#333333"/>
</svg>
