<svg width="49" height="68" viewBox="0 0 49 68" fill="none" xmlns="http://www.w3.org/2000/svg">
<path d="M0.945656 42.748L15.5642 60.3978C19.1988 65.1964 24.764 67.9478 30.831 67.9478C38.9023 67.9478 48.2851 62.0958 48.2851 54.5511V17.4597C48.2838 16.4576 47.8797 15.497 47.1612 14.7884C46.4427 14.0798 45.4687 13.6811 44.4525 13.6797C43.4363 13.6807 42.462 14.0794 41.7435 14.788C41.025 15.4967 40.6209 16.4576 40.62 17.4597V31.7376C40.62 31.8945 40.5568 32.0449 40.4443 32.1559C40.3318 32.2668 40.1792 32.3292 40.0201 32.3292C39.861 32.3292 39.7084 32.2668 39.5959 32.1559C39.4834 32.0449 39.4202 31.8945 39.4202 31.7376V9.46435C39.4191 8.46231 39.0149 7.50163 38.2964 6.79309C37.5779 6.08454 36.6038 5.686 35.5876 5.68491C34.5717 5.68631 33.5979 6.08499 32.8796 6.7935C32.1614 7.50201 31.7574 8.46252 31.7563 9.46435V31.7376C31.7479 31.8888 31.6811 32.0311 31.5695 32.1352C31.458 32.2394 31.3103 32.2974 31.1567 32.2974C31.0031 32.2974 30.8554 32.2394 30.7438 32.1352C30.6323 32.0311 30.5655 31.8888 30.5571 31.7376L30.5565 4.23635C30.5529 2.15436 28.8346 0.460449 26.7245 0.460449C25.7083 0.461542 24.7339 0.860145 24.0153 1.5688C23.2967 2.27746 22.8925 3.23829 22.8914 4.24048V31.7376C22.8914 31.8945 22.8282 32.0449 22.7157 32.1559C22.6032 32.2668 22.4506 32.3292 22.2915 32.3292C22.1324 32.3292 21.9798 32.2668 21.8673 32.1559C21.7548 32.0449 21.6916 31.8945 21.6916 31.7376V11.3836C21.6916 9.2992 19.9727 7.60353 17.8596 7.60353C15.7466 7.60353 14.0265 9.2992 14.0265 11.3836V45.9807C14.0265 46.0258 14.0124 46.0698 13.9861 46.1066C13.9598 46.1435 13.9225 46.1714 13.8794 46.1866C13.8364 46.2017 13.7896 46.2033 13.7456 46.1911C13.7015 46.179 13.6624 46.1537 13.6335 46.1187L6.8823 37.9659C6.52311 37.5309 6.06993 37.1805 5.55587 36.9403C5.04181 36.7001 4.47984 36.5761 3.91099 36.5775C3.0286 36.5786 2.17357 36.8796 1.48992 37.4298C1.09887 37.7427 0.774666 38.129 0.536075 38.5664C0.297485 39.0038 0.14925 39.4834 0.0999557 39.9777C0.0482693 40.4717 0.0963987 40.9708 0.241559 41.4463C0.386719 41.9218 0.626031 42.3643 0.945656 42.748Z" fill="#a1c17e"/>
</svg>
